<?xml version="1.0" standalone="no"?><!-- Generator: Gravit.io --><svg xmlns="http://www.w3.org/2000/svg" xmlns:xlink="http://www.w3.org/1999/xlink" style="isolation:isolate" viewBox="0 0 48 48" width="48" height="48"><defs><clipPath id="_clipPath_8hLIyL1tFuRhnWSYG3d3YtlVH6uFu5c4"><rect width="48" height="48"/></clipPath></defs><g clip-path="url(#_clipPath_8hLIyL1tFuRhnWSYG3d3YtlVH6uFu5c4)"><g style="isolation:isolate"><path d=" M 22.633 34.571 L 36.944 18.093 C 36.904 18.094 36.865 18.106 36.825 18.106 C 32.964 18.106 29.821 14.978 29.796 11.123 L 29.821 11.07 C 29.82 11.057 29.82 11.044 29.82 11.031 C 29.82 10.991 29.832 10.953 29.833 10.913 L 13.319 25.256 C 18.441 25.29 22.604 29.447 22.633 34.571 L 22.633 34.571 L 22.633 34.571 Z  M 36.719 8.687 C 38.011 8.687 39.063 9.739 39.063 11.031 C 39.063 12.323 38.011 13.375 36.719 13.375 C 35.427 13.375 34.375 12.323 34.375 11.031 C 34.375 9.739 35.427 8.687 36.719 8.687 L 36.719 8.687 L 36.719 8.687 L 36.719 8.687 L 36.719 8.687 Z  M 43.277 8.279 C 43.65 9.136 43.857 10.082 43.857 11.075 L 43.857 11.075 L 43.857 11.075 L 43.857 11.075 L 43.857 11.075 C 43.857 12.768 43.254 14.393 42.14 15.679 L 42.14 15.68 L 20.315 40.821 C 18.539 42.87 15.958 44.044 13.232 44.044 C 9.376 44.044 5.959 41.731 4.526 38.153 C 4.054 36.977 3.83 35.716 3.877 34.457 L 3.877 34.457 L 3.885 34.44 C 3.936 31.782 5.103 29.277 7.106 27.541 L 32.247 5.716 L 32.247 5.717 C 33.534 4.602 35.159 4 36.852 4 L 36.852 4 L 36.852 4 L 36.852 4 L 36.852 4 C 39.736 4 42.22 5.745 43.284 8.246 L 43.277 8.279 L 43.277 8.279 L 43.277 8.279 Z  M 13.125 39.312 C 10.54 39.312 8.438 37.21 8.438 34.625 C 8.438 32.04 10.54 29.937 13.125 29.937 C 15.71 29.937 17.812 32.04 17.812 34.625 C 17.812 37.21 15.71 39.312 13.125 39.312 L 13.125 39.312 L 13.125 39.312 Z " fill-rule="evenodd" fill="rgb(0,0,0)"/></g></g></svg>