<?xml version="1.0" standalone="no"?><!-- Generator: Gravit.io --><svg xmlns="http://www.w3.org/2000/svg" xmlns:xlink="http://www.w3.org/1999/xlink" style="isolation:isolate" viewBox="0 0 48 48" width="48" height="48"><defs><clipPath id="_clipPath_iL6xCygrvh14hyGfSjfBJLRqJG8azDlm"><rect width="48" height="48"/></clipPath></defs><g clip-path="url(#_clipPath_iL6xCygrvh14hyGfSjfBJLRqJG8azDlm)"><g style="isolation:isolate"/><g><path d=" M 43.124 39.228 L 39.632 18.368 C 39.304 16.401 37.6 14.964 35.607 14.964 L 30.36 14.964 C 30.975 13.892 31.327 12.65 31.327 11.328 C 31.327 7.287 28.041 4 23.999 4 C 19.959 4 16.672 7.287 16.672 11.328 C 16.672 12.65 17.023 13.892 17.639 14.964 L 12.392 14.964 C 10.397 14.964 8.695 16.403 8.366 18.37 L 4.875 39.233 C 4.677 40.415 5.01 41.633 5.786 42.548 C 6.562 43.464 7.701 44 8.902 44 L 39.1 44 C 40.301 44 41.44 43.464 42.216 42.548 C 42.991 41.631 43.323 40.412 43.124 39.228 Z  M 24 8.269 C 25.686 8.269 27.059 9.642 27.059 11.329 C 27.059 13.016 25.686 14.387 24 14.387 C 22.313 14.387 20.941 13.015 20.941 11.328 C 20.941 9.641 22.313 8.269 24 8.269 Z " fill="rgb(0,0,0)"/></g></g></svg>