<?xml version="1.0" standalone="no"?><!-- Generator: Gravit.io --><svg xmlns="http://www.w3.org/2000/svg" xmlns:xlink="http://www.w3.org/1999/xlink" style="isolation:isolate" viewBox="0 0 48 48" width="48" height="48"><defs><clipPath id="_clipPath_HK6DhKVlfl1QMWOxoptobkNJkrzR8FaB"><rect width="48" height="48"/></clipPath></defs><g clip-path="url(#_clipPath_HK6DhKVlfl1QMWOxoptobkNJkrzR8FaB)"><g style="isolation:isolate"><path d=" M 14.981 41.853 C 11.179 39.927 8.073 36.821 6.147 33.019 L 6.147 33.019 L 6.147 33.019 L 13.574 29.942 C 14.64 31.807 16.193 33.36 18.058 34.426 L 14.981 41.853 Z  M 17.752 43.003 C 19.718 43.65 21.819 44 24 44 C 26.181 44 28.282 43.65 30.248 43.003 L 27.171 35.576 C 26.161 35.852 25.098 36 24 36 C 22.902 36 21.839 35.852 20.829 35.576 L 17.752 43.003 Z  M 33.019 6.147 C 36.821 8.073 39.927 11.179 41.853 14.981 L 41.853 14.981 L 41.853 14.981 L 34.426 18.058 C 33.36 16.193 31.807 14.64 29.942 13.574 L 33.019 6.147 Z  M 30.248 4.997 C 28.282 4.35 26.181 4 24 4 C 21.819 4 19.718 4.35 17.752 4.997 L 17.752 4.997 L 20.829 12.424 C 21.839 12.148 22.902 12 24 12 C 25.098 12 26.161 12.148 27.171 12.424 L 30.248 4.997 Z  M 4.997 17.752 C 4.35 19.718 4 21.819 4 24 L 4 24 C 4 26.181 4.35 28.282 4.997 30.248 L 4.997 30.248 L 12.424 27.171 C 12.148 26.161 12 25.098 12 24 L 12 24 C 12 22.902 12.148 21.839 12.424 20.829 L 4.997 17.752 L 4.997 17.752 Z  M 6.147 14.981 C 8.073 11.179 11.179 8.073 14.981 6.147 L 14.981 6.147 L 18.058 13.574 C 16.193 14.64 14.64 16.193 13.574 18.058 L 6.147 14.981 L 6.147 14.981 Z  M 43.003 30.248 C 43.65 28.282 44 26.181 44 24 C 44 21.819 43.65 19.718 43.003 17.752 L 43.003 17.752 L 35.576 20.829 C 35.852 21.839 36 22.902 36 24 C 36 25.098 35.852 26.161 35.576 27.171 L 43.003 30.248 L 43.003 30.248 Z  M 41.853 33.019 C 39.927 36.821 36.821 39.927 33.019 41.853 L 29.942 34.426 C 31.807 33.36 33.36 31.807 34.426 29.942 L 41.853 33.019 L 41.853 33.019 Z " fill-rule="evenodd" fill="rgb(0,0,0)"/></g></g></svg>