<?xml version="1.0" standalone="no"?><!-- Generator: Gravit.io --><svg xmlns="http://www.w3.org/2000/svg" xmlns:xlink="http://www.w3.org/1999/xlink" style="isolation:isolate" viewBox="0 0 48 48" width="48" height="48"><defs><clipPath id="_clipPath_ItAjsWY6FtoCMOfNEwJJPZs9vP4dUUxk"><rect width="48" height="48"/></clipPath></defs><g clip-path="url(#_clipPath_ItAjsWY6FtoCMOfNEwJJPZs9vP4dUUxk)"><g style="isolation:isolate"/><g><path d=" M 41.5 34 L 39 34 L 25.25 34 L 22.75 34 L 9 34 L 6.5 34 C 5.119 34 4 35.119 4 36.5 L 4 39 C 4 40.381 5.119 41.5 6.5 41.5 L 9 41.5 C 10.381 41.5 11.5 40.381 11.5 39 L 20.25 39 C 20.25 40.381 21.369 41.5 22.75 41.5 L 25.25 41.5 C 26.631 41.5 27.75 40.381 27.75 39 L 36.5 39 C 36.5 40.381 37.619 41.5 39 41.5 L 41.5 41.5 C 42.881 41.5 44 40.381 44 39 L 44 36.5 C 44 35.119 42.881 34 41.5 34 Z " fill="rgb(0,0,0)"/><path d=" M 40.25 29 L 40.25 9 C 40.25 7.619 39.131 6.5 37.75 6.5 L 10.25 6.5 C 8.869 6.5 7.75 7.619 7.75 9 L 7.75 29 C 7.75 30.381 8.869 31.5 10.25 31.5 L 37.75 31.5 C 39.131 31.5 40.25 30.381 40.25 29 Z  M 12.516 9.859 L 16.266 9.859 C 16.956 9.859 17.516 10.419 17.516 11.109 C 17.516 11.8 16.956 12.359 16.266 12.359 L 12.516 12.359 C 11.825 12.359 11.266 11.8 11.266 11.109 C 11.266 10.419 11.825 9.859 12.516 9.859 Z  M 12.516 14.859 L 16.266 14.859 C 16.956 14.859 17.516 15.419 17.516 16.109 C 17.516 16.8 16.956 17.359 16.266 17.359 L 12.516 17.359 C 11.825 17.359 11.266 16.8 11.266 16.109 C 11.266 15.419 11.825 14.859 12.516 14.859 Z  M 30.875 24 L 29.625 24 C 29.164 24 28.741 23.746 28.523 23.34 C 28.305 22.933 28.329 22.44 28.585 22.057 L 31.085 18.307 C 31.549 17.611 32.701 17.611 33.165 18.307 L 35.665 22.057 C 35.921 22.44 35.945 22.933 35.727 23.34 C 35.509 23.746 35.086 24 34.625 24 L 33.375 24 L 33.375 26.5 C 33.375 27.19 32.815 27.75 32.125 27.75 C 31.435 27.75 30.875 27.19 30.875 26.5 L 30.875 24 L 30.875 24 Z " fill="rgb(0,0,0)"/></g></g></svg>