<?xml version="1.0" standalone="no"?><!-- Generator: Gravit.io --><svg xmlns="http://www.w3.org/2000/svg" xmlns:xlink="http://www.w3.org/1999/xlink" style="isolation:isolate" viewBox="0 0 48 48" width="48" height="48"><defs><clipPath id="_clipPath_8V9d03U4KeP0naYpCCPAahg0ruwIatRt"><rect width="48" height="48"/></clipPath></defs><g clip-path="url(#_clipPath_8V9d03U4KeP0naYpCCPAahg0ruwIatRt)"><path d=" M 40.821 32.135 L 36.758 29.79 L 40.279 27.714 C 40.928 27.331 41.144 26.494 40.762 25.845 C 40.379 25.195 39.542 24.979 38.892 25.362 L 34.042 28.222 L 26.73 24 L 34.041 19.779 L 38.893 22.638 C 39.11 22.766 39.349 22.827 39.584 22.827 C 40.052 22.827 40.507 22.587 40.762 22.155 C 41.144 21.506 40.928 20.669 40.279 20.286 L 36.757 18.211 L 40.821 15.864 C 41.474 15.487 41.698 14.653 41.321 14 C 40.944 13.347 40.109 13.123 39.456 13.5 L 35.393 15.846 L 35.356 11.758 C 35.35 11.004 34.731 10.395 33.979 10.405 C 33.225 10.412 32.62 11.029 32.627 11.783 L 32.677 17.414 L 25.365 21.636 L 25.365 13.193 L 30.268 10.422 C 30.924 10.051 31.155 9.218 30.784 8.562 C 30.413 7.906 29.581 7.674 28.924 8.045 L 25.365 10.057 L 25.365 5.365 C 25.365 4.611 24.754 4 24 4 C 23.246 4 22.635 4.611 22.635 5.365 L 22.635 10.057 L 19.076 8.045 C 18.419 7.674 17.587 7.906 17.216 8.562 C 16.845 9.218 17.076 10.051 17.733 10.422 L 22.635 13.193 L 22.635 21.636 L 15.323 17.414 L 15.374 11.783 C 15.38 11.029 14.775 10.412 14.021 10.405 C 14.017 10.405 14.013 10.405 14.008 10.405 C 13.26 10.405 12.65 11.008 12.644 11.758 L 12.607 15.846 L 8.544 13.5 C 7.891 13.123 7.056 13.347 6.679 14 C 6.302 14.653 6.526 15.487 7.179 15.864 L 11.242 18.211 L 7.721 20.286 C 7.071 20.669 6.855 21.506 7.238 22.155 C 7.492 22.587 7.948 22.827 8.415 22.827 C 8.651 22.827 8.889 22.766 9.107 22.638 L 13.959 19.779 L 21.27 24 L 13.958 28.222 L 9.107 25.362 C 8.458 24.979 7.621 25.195 7.238 25.844 C 6.855 26.494 7.071 27.331 7.72 27.713 L 11.242 29.79 L 7.179 32.135 C 6.526 32.512 6.302 33.347 6.679 34 C 6.932 34.438 7.391 34.683 7.863 34.683 C 8.094 34.683 8.329 34.624 8.544 34.499 L 12.607 32.154 L 12.644 36.242 C 12.65 36.991 13.26 37.595 14.008 37.595 C 14.012 37.595 14.017 37.595 14.021 37.594 C 14.775 37.588 15.38 36.971 15.373 36.217 L 15.323 30.586 L 22.635 26.364 L 22.635 34.807 L 17.733 37.578 C 17.076 37.949 16.845 38.781 17.216 39.438 C 17.467 39.882 17.929 40.131 18.405 40.131 C 18.633 40.131 18.864 40.074 19.076 39.955 L 22.635 37.943 L 22.635 42.635 C 22.635 43.389 23.246 44 24 44 C 24.754 44 25.365 43.389 25.365 42.635 L 25.365 37.943 L 28.924 39.955 C 29.136 40.074 29.367 40.131 29.595 40.131 C 30.071 40.131 30.533 39.882 30.784 39.438 C 31.155 38.782 30.924 37.949 30.268 37.578 L 25.365 34.807 L 25.365 26.364 L 32.677 30.586 L 32.625 36.217 C 32.618 36.971 33.224 37.588 33.977 37.595 C 33.982 37.595 33.986 37.595 33.99 37.595 C 34.738 37.595 35.348 36.992 35.355 36.242 L 35.393 32.154 L 39.456 34.5 C 39.671 34.624 39.906 34.683 40.137 34.683 C 40.609 34.683 41.068 34.438 41.321 34 C 41.698 33.347 41.474 32.512 40.821 32.135 Z " fill="rgb(0,0,0)"/></g></svg>